<?xml version="1.0" standalone="no"?>
<!DOCTYPE svg PUBLIC "-//W3C//DTD SVG 20010904//EN"
 "http://www.w3.org/TR/2001/REC-SVG-20010904/DTD/svg10.dtd">
<svg version="1.0" xmlns="http://www.w3.org/2000/svg"
 width="1024.000000pt" height="1024.000000pt" viewBox="0 0 1024.000000 1024.000000"
 preserveAspectRatio="xMidYMid meet">
<metadata>
Created by potrace 1.14, written by Peter Selinger 2001-2017
</metadata>
<g transform="translate(0.000000,1024.000000) scale(0.100000,-0.100000)"
fill="#000000" stroke="none">
<path d="M4780 10109 c-1200 -81 -2340 -600 -3195 -1454 -1767 -1767 -1957
-4568 -447 -6559 1205 -1587 3242 -2307 5182 -1830 1149 282 2179 980 2867
1944 808 1131 1107 2537 832 3904 -395 1964 -1941 3510 -3905 3905 -437 88
-899 119 -1334 90z m1197 -2991 c23 -73 58 -186 78 -250 l36 -118 1055 0 1054
0 0 -1880 0 -1880 -3080 0 -3080 0 0 1880 0 1880 135 0 135 0 0 120 0 120 575
0 575 0 0 -120 0 -120 332 2 331 3 76 247 76 248 830 0 831 0 41 -132z"/>
<path d="M6550 6160 l0 -320 610 0 610 0 0 320 0 320 -610 0 -610 0 0 -320z"/>
<path d="M4860 5785 c-340 -62 -639 -288 -795 -602 -148 -299 -153 -660 -11
-958 24 -52 67 -128 95 -168 60 -87 202 -227 286 -284 386 -260 877 -256 1262
9 84 58 232 208 287 291 241 367 247 854 13 1214 -170 264 -442 445 -744 498
-104 18 -291 18 -393 0z"/>
</g>
</svg>
